{
	"patcher" : 	{
		"fileversion" : 1,
		"appversion" : 		{
			"major" : 8,
			"minor" : 2,
			"revision" : 0,
			"architecture" : "x64",
			"modernui" : 1
		}
,
		"classnamespace" : "box",
		"rect" : [ 1569.0, 355.0, 811.0, 758.0 ],
		"bglocked" : 0,
		"openinpresentation" : 0,
		"default_fontsize" : 12.0,
		"default_fontface" : 0,
		"default_fontname" : "Arial",
		"gridonopen" : 1,
		"gridsize" : [ 15.0, 15.0 ],
		"gridsnaponopen" : 1,
		"objectsnaponopen" : 1,
		"statusbarvisible" : 2,
		"toolbarvisible" : 1,
		"lefttoolbarpinned" : 0,
		"toptoolbarpinned" : 0,
		"righttoolbarpinned" : 0,
		"bottomtoolbarpinned" : 0,
		"toolbars_unpinned_last_save" : 0,
		"tallnewobj" : 0,
		"boxanimatetime" : 200,
		"enablehscroll" : 1,
		"enablevscroll" : 1,
		"devicewidth" : 0.0,
		"description" : "",
		"digest" : "",
		"tags" : "",
		"style" : "",
		"subpatcher_template" : "",
		"assistshowspatchername" : 0,
		"boxes" : [ 			{
				"box" : 				{
					"color" : [ 0.113725490196078, 0.815686274509804, 0.070588235294118, 1.0 ],
					"id" : "obj-28",
					"maxclass" : "newobj",
					"numinlets" : 0,
					"numoutlets" : 1,
					"outlettype" : [ "" ],
					"patching_rect" : [ 223.0, 75.0, 69.0, 22.0 ],
					"style" : "default",
					"text" : "r osc.init"
				}

			}
, 			{
				"box" : 				{
					"id" : "obj-13",
					"maxclass" : "button",
					"numinlets" : 1,
					"numoutlets" : 1,
					"outlettype" : [ "bang" ],
					"parameter_enable" : 0,
					"patching_rect" : [ 223.0, 162.0, 24.0, 24.0 ]
				}

			}
, 			{
				"box" : 				{
					"id" : "obj-26",
					"maxclass" : "comment",
					"numinlets" : 1,
					"numoutlets" : 0,
					"patching_rect" : [ 493.0, 677.0, 77.0, 20.0 ],
					"text" : "to parameter"
				}

			}
, 			{
				"box" : 				{
					"comment" : "",
					"id" : "obj-27",
					"index" : 0,
					"maxclass" : "outlet",
					"numinlets" : 1,
					"numoutlets" : 0,
					"patching_rect" : [ 486.0, 644.0, 25.0, 25.0 ],
					"style" : "default"
				}

			}
, 			{
				"box" : 				{
					"id" : "obj-20",
					"maxclass" : "comment",
					"numinlets" : 1,
					"numoutlets" : 0,
					"patching_rect" : [ 304.0, 677.0, 40.0, 20.0 ],
					"text" : "to ui"
				}

			}
, 			{
				"box" : 				{
					"id" : "obj-5",
					"maxclass" : "newobj",
					"numinlets" : 1,
					"numoutlets" : 1,
					"outlettype" : [ "" ],
					"patching_rect" : [ 297.0, 580.0, 81.0, 22.0 ],
					"text" : "prepend set"
				}

			}
, 			{
				"box" : 				{
					"id" : "obj-25",
					"linecount" : 2,
					"maxclass" : "comment",
					"numinlets" : 1,
					"numoutlets" : 0,
					"patching_rect" : [ 109.0, 12.0, 156.0, 34.0 ],
					"style" : "default",
					"text" : "send value to osc when \"osc.init\" is received"
				}

			}
, 			{
				"box" : 				{
					"id" : "obj-19",
					"maxclass" : "newobj",
					"numinlets" : 2,
					"numoutlets" : 2,
					"outlettype" : [ "", "" ],
					"patching_rect" : [ 297.0, 193.0, 70.0, 22.0 ],
					"style" : "default",
					"text" : "zl 1024 reg"
				}

			}
, 			{
				"box" : 				{
					"color" : [ 0.113725490196078, 0.815686274509804, 0.070588235294118, 1.0 ],
					"id" : "obj-18",
					"maxclass" : "newobj",
					"numinlets" : 1,
					"numoutlets" : 1,
					"outlettype" : [ "" ],
					"patching_rect" : [ 68.0, 75.0, 144.0, 22.0 ],
					"style" : "default",
					"text" : "sprintf set %sosc.init"
				}

			}
, 			{
				"box" : 				{
					"color" : [ 0.113725490196078, 0.815686274509804, 0.070588235294118, 1.0 ],
					"id" : "obj-15",
					"maxclass" : "newobj",
					"numinlets" : 1,
					"numoutlets" : 1,
					"outlettype" : [ "" ],
					"patching_rect" : [ 81.0, 102.0, 126.0, 22.0 ],
					"style" : "default",
					"text" : "loadmess set osc.init"
				}

			}
, 			{
				"box" : 				{
					"color" : [ 0.113725490196078, 0.815686274509804, 0.070588235294118, 1.0 ],
					"id" : "obj-17",
					"maxclass" : "newobj",
					"numinlets" : 1,
					"numoutlets" : 1,
					"outlettype" : [ "" ],
					"patching_rect" : [ 68.0, 129.0, 25.0, 22.0 ],
					"style" : "default",
					"text" : "r"
				}

			}
, 			{
				"box" : 				{
					"color" : [ 0.254901960784314, 0.533333333333333, 0.698039215686274, 1.0 ],
					"id" : "obj-24",
					"maxclass" : "newobj",
					"numinlets" : 1,
					"numoutlets" : 1,
					"outlettype" : [ "" ],
					"patching_rect" : [ 40.5, 300.0, 140.0, 22.0 ],
					"style" : "default",
					"text" : "sprintf send %sto.osc"
				}

			}
, 			{
				"box" : 				{
					"color" : [ 0.92156862745098, 0.509803921568627, 0.090196078431373, 1.0 ],
					"id" : "obj-23",
					"maxclass" : "newobj",
					"numinlets" : 1,
					"numoutlets" : 1,
					"outlettype" : [ "" ],
					"patching_rect" : [ 5.0, 404.0, 144.0, 22.0 ],
					"style" : "default",
					"text" : "sprintf set %sfrom.osc"
				}

			}
, 			{
				"box" : 				{
					"color" : [ 0.254901960784314, 0.533333333333333, 0.698039215686274, 1.0 ],
					"id" : "obj-22",
					"maxclass" : "newobj",
					"numinlets" : 1,
					"numoutlets" : 1,
					"outlettype" : [ "" ],
					"patching_rect" : [ 333.0, 330.0, 142.0, 22.0 ],
					"style" : "default",
					"text" : "loadmess send to.osc"
				}

			}
, 			{
				"box" : 				{
					"color" : [ 0.254901960784314, 0.533333333333333, 0.698039215686274, 1.0 ],
					"id" : "obj-21",
					"maxclass" : "newobj",
					"numinlets" : 1,
					"numoutlets" : 0,
					"patching_rect" : [ 297.0, 375.0, 56.0, 22.0 ],
					"style" : "default",
					"text" : "forward"
				}

			}
, 			{
				"box" : 				{
					"id" : "obj-12",
					"maxclass" : "newobj",
					"numinlets" : 2,
					"numoutlets" : 2,
					"outlettype" : [ "", "" ],
					"patching_rect" : [ 5.0, 38.0, 50.0, 22.0 ],
					"style" : "default",
					"text" : "zl nth 2"
				}

			}
, 			{
				"box" : 				{
					"id" : "obj-11",
					"maxclass" : "newobj",
					"numinlets" : 1,
					"numoutlets" : 2,
					"outlettype" : [ "", "" ],
					"patching_rect" : [ 5.0, 12.0, 78.0, 22.0 ],
					"style" : "default",
					"text" : "patcherargs"
				}

			}
, 			{
				"box" : 				{
					"color" : [ 0.92156862745098, 0.509803921568627, 0.090196078431373, 1.0 ],
					"id" : "obj-7",
					"maxclass" : "newobj",
					"numinlets" : 1,
					"numoutlets" : 1,
					"outlettype" : [ "" ],
					"patching_rect" : [ 297.0, 433.0, 146.0, 22.0 ],
					"style" : "default",
					"text" : "loadmess set from.osc"
				}

			}
, 			{
				"box" : 				{
					"id" : "obj-16",
					"maxclass" : "comment",
					"numinlets" : 1,
					"numoutlets" : 0,
					"patching_rect" : [ 559.0, 30.0, 64.0, 20.0 ],
					"style" : "default",
					"text" : "configure"
				}

			}
, 			{
				"box" : 				{
					"id" : "obj-14",
					"maxclass" : "newobj",
					"numinlets" : 1,
					"numoutlets" : 1,
					"outlettype" : [ "" ],
					"patching_rect" : [ 420.0, 68.0, 91.0, 22.0 ],
					"style" : "default",
					"text" : "prepend set"
				}

			}
, 			{
				"box" : 				{
					"id" : "obj-6",
					"maxclass" : "newobj",
					"numinlets" : 1,
					"numoutlets" : 1,
					"outlettype" : [ "" ],
					"patching_rect" : [ 532.0, 453.0, 95.0, 22.0 ],
					"style" : "default",
					"text" : "prepend set 1"
				}

			}
, 			{
				"box" : 				{
					"comment" : "change destination",
					"id" : "obj-4",
					"index" : 0,
					"maxclass" : "inlet",
					"numinlets" : 0,
					"numoutlets" : 1,
					"outlettype" : [ "" ],
					"patching_rect" : [ 532.0, 24.0, 25.0, 25.0 ],
					"style" : "default"
				}

			}
, 			{
				"box" : 				{
					"comment" : "",
					"id" : "obj-10",
					"index" : 0,
					"maxclass" : "outlet",
					"numinlets" : 1,
					"numoutlets" : 0,
					"patching_rect" : [ 297.0, 644.0, 25.0, 25.0 ],
					"style" : "default"
				}

			}
, 			{
				"box" : 				{
					"comment" : "to lemur (no output)",
					"id" : "obj-9",
					"index" : 0,
					"maxclass" : "inlet",
					"numinlets" : 0,
					"numoutlets" : 1,
					"outlettype" : [ "" ],
					"patching_rect" : [ 297.0, 25.0, 25.0, 25.0 ],
					"style" : "default"
				}

			}
, 			{
				"box" : 				{
					"id" : "obj-8",
					"maxclass" : "newobj",
					"numinlets" : 1,
					"numoutlets" : 1,
					"outlettype" : [ "" ],
					"patching_rect" : [ 297.0, 140.0, 121.0, 22.0 ],
					"style" : "default",
					"text" : "prepend #1"
				}

			}
, 			{
				"box" : 				{
					"id" : "obj-2",
					"maxclass" : "newobj",
					"numinlets" : 1,
					"numoutlets" : 2,
					"outlettype" : [ "", "FullPacket" ],
					"patching_rect" : [ 297.0, 512.0, 120.0, 22.0 ],
					"style" : "default",
					"text" : "o.route #1"
				}

			}
, 			{
				"box" : 				{
					"color" : [ 0.92156862745098, 0.509803921568627, 0.090196078431373, 1.0 ],
					"id" : "obj-1",
					"maxclass" : "newobj",
					"numinlets" : 1,
					"numoutlets" : 1,
					"outlettype" : [ "" ],
					"patching_rect" : [ 297.0, 463.0, 25.0, 22.0 ],
					"style" : "default",
					"text" : "r"
				}

			}
 ],
		"lines" : [ 			{
				"patchline" : 				{
					"destination" : [ "obj-2", 0 ],
					"source" : [ "obj-1", 0 ]
				}

			}
, 			{
				"patchline" : 				{
					"destination" : [ "obj-12", 0 ],
					"source" : [ "obj-11", 0 ]
				}

			}
, 			{
				"patchline" : 				{
					"destination" : [ "obj-18", 0 ],
					"order" : 0,
					"source" : [ "obj-12", 0 ]
				}

			}
, 			{
				"patchline" : 				{
					"destination" : [ "obj-23", 0 ],
					"order" : 2,
					"source" : [ "obj-12", 0 ]
				}

			}
, 			{
				"patchline" : 				{
					"destination" : [ "obj-24", 0 ],
					"order" : 1,
					"source" : [ "obj-12", 0 ]
				}

			}
, 			{
				"patchline" : 				{
					"destination" : [ "obj-19", 0 ],
					"source" : [ "obj-13", 0 ]
				}

			}
, 			{
				"patchline" : 				{
					"destination" : [ "obj-8", 0 ],
					"source" : [ "obj-14", 0 ]
				}

			}
, 			{
				"patchline" : 				{
					"color" : [ 0.317647, 0.709804, 0.321569, 1.0 ],
					"destination" : [ "obj-17", 0 ],
					"source" : [ "obj-15", 0 ]
				}

			}
, 			{
				"patchline" : 				{
					"color" : [ 0.317647, 0.709804, 0.321569, 1.0 ],
					"destination" : [ "obj-13", 0 ],
					"midpoints" : [ 77.5, 158.5, 232.5, 158.5 ],
					"source" : [ "obj-17", 0 ]
				}

			}
, 			{
				"patchline" : 				{
					"color" : [ 0.317647, 0.709804, 0.321569, 1.0 ],
					"destination" : [ "obj-17", 0 ],
					"source" : [ "obj-18", 0 ]
				}

			}
, 			{
				"patchline" : 				{
					"destination" : [ "obj-21", 0 ],
					"source" : [ "obj-19", 0 ]
				}

			}
, 			{
				"patchline" : 				{
					"destination" : [ "obj-27", 0 ],
					"midpoints" : [ 306.5, 560.0, 495.5, 560.0 ],
					"order" : 0,
					"source" : [ "obj-2", 0 ]
				}

			}
, 			{
				"patchline" : 				{
					"destination" : [ "obj-5", 0 ],
					"order" : 1,
					"source" : [ "obj-2", 0 ]
				}

			}
, 			{
				"patchline" : 				{
					"destination" : [ "obj-21", 0 ],
					"midpoints" : [ 342.5, 360.0, 306.5, 360.0 ],
					"source" : [ "obj-22", 0 ]
				}

			}
, 			{
				"patchline" : 				{
					"destination" : [ "obj-1", 0 ],
					"midpoints" : [ 14.5, 460.5, 306.5, 460.5 ],
					"source" : [ "obj-23", 0 ]
				}

			}
, 			{
				"patchline" : 				{
					"destination" : [ "obj-21", 0 ],
					"midpoints" : [ 50.0, 353.0, 306.5, 353.0 ],
					"source" : [ "obj-24", 0 ]
				}

			}
, 			{
				"patchline" : 				{
					"destination" : [ "obj-13", 0 ],
					"source" : [ "obj-28", 0 ]
				}

			}
, 			{
				"patchline" : 				{
					"destination" : [ "obj-14", 0 ],
					"order" : 1,
					"source" : [ "obj-4", 0 ]
				}

			}
, 			{
				"patchline" : 				{
					"destination" : [ "obj-6", 0 ],
					"order" : 0,
					"source" : [ "obj-4", 0 ]
				}

			}
, 			{
				"patchline" : 				{
					"destination" : [ "obj-10", 0 ],
					"source" : [ "obj-5", 0 ]
				}

			}
, 			{
				"patchline" : 				{
					"destination" : [ "obj-2", 0 ],
					"source" : [ "obj-6", 0 ]
				}

			}
, 			{
				"patchline" : 				{
					"destination" : [ "obj-1", 0 ],
					"source" : [ "obj-7", 0 ]
				}

			}
, 			{
				"patchline" : 				{
					"destination" : [ "obj-19", 0 ],
					"source" : [ "obj-8", 0 ]
				}

			}
, 			{
				"patchline" : 				{
					"destination" : [ "obj-27", 0 ],
					"midpoints" : [ 306.5, 102.0, 495.5, 102.0 ],
					"order" : 0,
					"source" : [ "obj-9", 0 ]
				}

			}
, 			{
				"patchline" : 				{
					"destination" : [ "obj-8", 0 ],
					"order" : 1,
					"source" : [ "obj-9", 0 ]
				}

			}
 ],
		"dependency_cache" : [ 			{
				"name" : "o.route.mxe64",
				"type" : "mx64"
			}
 ],
		"autosave" : 0
	}

}
